<svg width="36" height="36" viewBox="0 0 36 36" fill="none" xmlns="http://www.w3.org/2000/svg">
<g clip-path="url(#clip0_1387_407)">
<path d="M17.8997 3.82617C9.84974 3.82617 3.31641 10.3595 3.31641 18.4095C3.31641 26.4595 9.84974 32.9928 17.8997 32.9928C25.9497 32.9928 32.4831 26.4595 32.4831 18.4095C32.4831 10.3595 25.9497 3.82617 17.8997 3.82617ZM17.8997 8.20117C20.3206 8.20117 22.2747 10.1553 22.2747 12.5762C22.2747 14.997 20.3206 16.9512 17.8997 16.9512C15.4789 16.9512 13.5247 14.997 13.5247 12.5762C13.5247 10.1553 15.4789 8.20117 17.8997 8.20117ZM17.8997 28.9095C14.2539 28.9095 11.031 27.0428 9.14974 24.2137C9.19349 21.3116 14.9831 19.722 17.8997 19.722C20.8018 19.722 26.606 21.3116 26.6497 24.2137C24.7685 27.0428 21.5456 28.9095 17.8997 28.9095Z" fill="#F1E4FF"/>
</g>
<defs>
<clipPath id="clip0_1387_407">
<rect x="0.390625" y="0.914062" width="35" height="35" rx="5" fill="white"/>
</clipPath>
</defs>
</svg>
