<svg width="18" height="18" viewBox="0 0 18 18" fill="none" xmlns="http://www.w3.org/2000/svg">
<path fill-rule="evenodd" clip-rule="evenodd" d="M1.42797 5.04287C-0.38099 5.69237 -0.500987 8.20484 1.23822 9.02383L5.79812 11.1688C6.25214 11.3826 6.61737 11.7481 6.83085 12.2023L8.9758 16.7615C9.79478 18.5007 12.3072 18.3815 12.9567 16.5717L17.8691 2.8889C18.4841 1.17367 16.8259 -0.484564 15.1107 0.131179L1.42797 5.04287ZM1.85021 7.72259C1.27047 7.4496 1.31022 6.61261 1.91321 6.39586L15.5959 1.48416C15.7242 1.43794 15.863 1.42919 15.9961 1.45892C16.1292 1.48865 16.251 1.55565 16.3475 1.65208C16.4439 1.7485 16.5109 1.87038 16.5406 2.00347C16.5704 2.13656 16.5616 2.27536 16.5154 2.40365L11.6037 16.0865C11.387 16.6895 10.55 16.7292 10.2763 16.1495L8.13132 11.5896C8.05778 11.4334 7.97307 11.2828 7.87783 11.1388L11.6142 7.4016C11.681 7.33487 11.7339 7.25565 11.77 7.16847C11.8061 7.08129 11.8247 6.98784 11.8247 6.89348C11.8247 6.79911 11.8061 6.70567 11.77 6.61849C11.7339 6.5313 11.681 6.45209 11.6142 6.38536C11.5475 6.31863 11.4683 6.2657 11.3811 6.22959C11.2939 6.19348 11.2005 6.17489 11.1061 6.17489C11.0118 6.17489 10.9183 6.19348 10.8311 6.22959C10.744 6.2657 10.6647 6.31863 10.598 6.38536L6.86085 10.1218C6.71689 10.0266 6.56625 9.94188 6.41011 9.86832L1.85021 7.72259Z" fill="#F9FAFB"/>
</svg>
