<svg width="16" height="17" viewBox="0 0 16 17" fill="none" xmlns="http://www.w3.org/2000/svg">
<path fill-rule="evenodd" clip-rule="evenodd" d="M4.48626 6.53437C3.67356 6.87084 3.61965 8.17244 4.40102 8.59673L6.44961 9.70795C6.65359 9.81871 6.81767 10.0081 6.91358 10.2434L7.87723 12.6053C8.24517 13.5063 9.37392 13.4445 9.66571 12.507L11.8727 5.41849C12.149 4.5299 11.404 3.67084 10.6334 3.98983L4.48626 6.53437ZM4.67596 7.92261C4.4155 7.78119 4.43336 7.34758 4.70426 7.23529L10.8514 4.69076C10.909 4.66681 10.9714 4.66227 11.0312 4.67768C11.091 4.69308 11.1457 4.72779 11.1891 4.77774C11.2324 4.8277 11.2625 4.89084 11.2758 4.95978C11.2892 5.02873 11.2853 5.10064 11.2645 5.1671L9.05787 12.2556C8.96049 12.568 8.58447 12.5886 8.46148 12.2882L7.49783 9.92592C7.4648 9.84502 7.42674 9.76698 7.38395 9.6924L9.06259 7.75632C9.09256 7.72175 9.11634 7.68071 9.13257 7.63555C9.14879 7.59038 9.15714 7.54197 9.15714 7.49309C9.15714 7.4442 9.14879 7.39579 9.13257 7.35062C9.11634 7.30546 9.09256 7.26442 9.06259 7.22985C9.03261 7.19528 8.99702 7.16786 8.95785 7.14915C8.91868 7.13045 8.8767 7.12082 8.83431 7.12082C8.79191 7.12082 8.74993 7.13045 8.71077 7.14915C8.6716 7.16786 8.63601 7.19528 8.60603 7.22985L6.92706 9.16555C6.86238 9.11622 6.7947 9.07233 6.72456 9.03422L4.67596 7.923V7.92261Z" fill="url(#paint0_linear_339_2368)"/>
<rect x="0.236198" y="0.839714" width="15.5237" height="15.5237" rx="4.04857" stroke="#F2F2F2" stroke-width="0.476302"/>
<defs>
<linearGradient id="paint0_linear_339_2368" x1="9.23577" y1="3.92188" x2="9.23577" y2="12.2754" gradientUnits="userSpaceOnUse">
<stop stop-color="#7F43F5"/>
<stop offset="1" stop-color="#5C75ED"/>
</linearGradient>
</defs>
</svg>
