<svg width="8" height="6" viewBox="0 0 8 6" fill="none" xmlns="http://www.w3.org/2000/svg">
<path d="M3.94628 5.09339C3.86592 5.09339 3.78798 5.07545 3.71245 5.03958C3.63691 5.00371 3.57423 4.95588 3.52441 4.89609L0.752158 1.59578C0.64167 1.46425 0.586426 1.29684 0.586426 1.09356C0.586426 0.890284 0.64167 0.722877 0.752158 0.591343C0.862647 0.45981 1.00327 0.394043 1.17402 0.394043C1.34478 0.394043 1.4854 0.45981 1.59589 0.591343C2.82257 2.05168 5.06999 2.05168 6.29667 0.591343C6.40716 0.45981 6.54778 0.394043 6.71853 0.394043C6.88929 0.394043 7.02991 0.45981 7.1404 0.591343C7.25089 0.722877 7.30613 0.890284 7.30613 1.09356C7.30613 1.29684 7.25089 1.46425 7.1404 1.59578L4.36814 4.89609C4.30788 4.96783 4.24259 5.01877 4.17228 5.04891C4.10197 5.07904 4.02663 5.09387 3.94628 5.09339Z" fill="#666666"/>
</svg>
