<svg width="35" height="35" viewBox="0 0 35 35" fill="none" xmlns="http://www.w3.org/2000/svg">
<path d="M33.1657 0.864116L34.1256 1.81368C35.4484 3.12375 35.2483 5.44615 33.675 7.00085L13.8797 26.5827L7.46616 28.9035C6.66081 29.1964 5.87661 28.8166 5.71716 28.0586C5.66328 27.7836 5.68865 27.4991 5.79038 27.2377L8.18202 20.8387L27.922 1.30993C29.4953 -0.244777 31.843 -0.445955 33.1657 0.864116ZM13.0157 2.81152C13.2294 2.81152 13.441 2.85315 13.6384 2.93403C13.8357 3.01491 14.0151 3.13346 14.1662 3.28291C14.3173 3.43236 14.4371 3.60978 14.5189 3.80504C14.6006 4.00031 14.6427 4.20959 14.6427 4.42094C14.6427 4.6323 14.6006 4.84158 14.5189 5.03684C14.4371 5.23211 14.3173 5.40953 14.1662 5.55898C14.0151 5.70843 13.8357 5.82698 13.6384 5.90786C13.441 5.98874 13.2294 6.03037 13.0157 6.03037H6.50787C5.64487 6.03037 4.81722 6.36949 4.20699 6.97315C3.59676 7.5768 3.25394 8.39552 3.25394 9.24922V28.5623C3.25394 29.416 3.59676 30.2347 4.20699 30.8384C4.81722 31.442 5.64487 31.7812 6.50787 31.7812H26.0315C26.8945 31.7812 27.7221 31.442 28.3324 30.8384C28.9426 30.2347 29.2854 29.416 29.2854 28.5623V22.1246C29.2854 21.6978 29.4568 21.2884 29.7619 20.9866C30.0671 20.6847 30.4809 20.5152 30.9124 20.5152C31.3439 20.5152 31.7577 20.6847 32.0628 20.9866C32.3679 21.2884 32.5394 21.6978 32.5394 22.1246V28.5623C32.5394 30.2697 31.8537 31.9071 30.6332 33.1144C29.4128 34.3217 27.7575 35 26.0315 35H6.50787C4.78188 35 3.12657 34.3217 1.90611 33.1144C0.685649 31.9071 0 30.2697 0 28.5623V9.24922C0 7.54183 0.685649 5.90438 1.90611 4.69708C3.12657 3.48977 4.78188 2.81152 6.50787 2.81152H13.0157Z" fill="#A7BA9E"/>
</svg>
