<svg width="32" height="32" viewBox="0 0 32 32" fill="none" xmlns="http://www.w3.org/2000/svg">
<path d="M29.5767 1.24437L30.432 2.09045C31.6106 3.25774 31.4323 5.32705 30.0304 6.71232L12.3924 24.1601L6.67788 26.228C5.9603 26.489 5.26156 26.1506 5.11949 25.4751C5.07148 25.2301 5.09409 24.9767 5.18473 24.7438L7.31573 19.0421L24.9044 1.6416C26.3063 0.256325 28.3981 0.0770716 29.5767 1.24437ZM11.6227 2.97954C11.813 2.97954 12.0015 3.01664 12.1774 3.0887C12.3533 3.16077 12.5131 3.2664 12.6477 3.39956C12.7823 3.53272 12.8891 3.69081 12.962 3.86479C13.0348 4.03878 13.0723 4.22525 13.0723 4.41357C13.0723 4.60189 13.0348 4.78837 12.962 4.96235C12.8891 5.13633 12.7823 5.29442 12.6477 5.42758C12.5131 5.56074 12.3533 5.66637 12.1774 5.73844C12.0015 5.81051 11.813 5.8476 11.6227 5.8476H5.82403C5.05508 5.8476 4.31763 6.14977 3.7739 6.68763C3.23017 7.2255 2.92471 7.955 2.92471 8.71565V25.924C2.92471 26.6846 3.23017 27.4141 3.7739 27.952C4.31763 28.4899 5.05508 28.792 5.82403 28.792H23.2199C23.9889 28.792 24.7263 28.4899 25.2701 27.952C25.8138 27.4141 26.1193 26.6846 26.1193 25.924V20.1879C26.1193 19.8075 26.272 19.4428 26.5439 19.1739C26.8157 18.9049 27.1844 18.7538 27.5689 18.7538C27.9534 18.7538 28.3221 18.9049 28.594 19.1739C28.8658 19.4428 29.0186 19.8075 29.0186 20.1879V25.924C29.0186 27.4453 28.4077 28.9043 27.3202 29.98C26.2327 31.0558 24.7578 31.6601 23.2199 31.6601H5.82403C4.28613 31.6601 2.81123 31.0558 1.72377 29.98C0.636317 28.9043 0.0253906 27.4453 0.0253906 25.924V8.71565C0.0253906 7.19434 0.636317 5.73534 1.72377 4.65961C2.81123 3.58388 4.28613 2.97954 5.82403 2.97954H11.6227Z" fill="#E9EEEE"/>
</svg>
