<svg width="180" height="180" viewBox="0 0 250 188" fill="none" xmlns="http://www.w3.org/2000/svg">
<path d="M193.75 140.625H204.688C207.813 140.625 210.938 137.5 210.938 134.375V21.875C210.938 18.75 207.813 15.625 204.688 15.625H193.75C190.625 15.625 187.5 18.75 187.5 21.875V134.375C187.5 137.5 190.625 140.625 193.75 140.625ZM100 140.625H110.937C114.062 140.625 117.188 137.5 117.188 134.375V37.5C117.188 34.375 114.062 31.25 110.937 31.25H100C96.875 31.25 93.75 34.375 93.75 37.5V134.375C93.75 137.5 96.875 140.625 100 140.625ZM146.875 140.625H157.813C160.938 140.625 164.062 137.5 164.062 134.375V68.75C164.062 65.625 160.938 62.5 157.813 62.5H146.875C143.75 62.5 140.625 65.625 140.625 68.75V134.375C140.625 137.5 143.75 140.625 146.875 140.625ZM242.188 164.063H23.4375V7.8125C23.4375 3.49609 19.9414 0 15.625 0H7.8125C3.49609 0 0 3.49609 0 7.8125V171.875C0 180.503 6.99707 187.5 15.625 187.5H242.188C246.504 187.5 250 184.004 250 179.688V171.875C250 167.559 246.504 164.063 242.188 164.063ZM53.125 140.625H64.0625C67.1875 140.625 70.3125 137.5 70.3125 134.375V100C70.3125 96.875 67.1875 93.75 64.0625 93.75H53.125C50 93.75 46.875 96.875 46.875 100V134.375C46.875 137.5 50 140.625 53.125 140.625Z" fill="black"/>
</svg>
