<svg width="180" height="180" viewBox="0 0 250 250" fill="none" xmlns="http://www.w3.org/2000/svg">
<path d="M109.375 0C79.0625 0 51.875 12.5 32.1875 32.1875L125 125V0.9375C120 0.3125 114.688 0 109.375 0ZM156.25 33.125V139.687L71.25 224.688C90.3125 240.313 114.062 250 140.625 250C200.937 250 250 200.937 250 140.625C250 85.625 209.063 40.9375 156.25 33.125ZM28.4375 74.0625C10.9375 90.9375 0 114.375 0 140.625C0 170.625 14.375 196.563 36.25 213.75L102.812 147.188L28.4375 74.0625Z" fill="black"/>
</svg>
