<svg width="14" height="14" viewBox="0 0 14 14" fill="none" xmlns="http://www.w3.org/2000/svg">
<path d="M11.334 10.4114C11.4565 10.5339 11.5254 10.7002 11.5254 10.8735C11.5254 11.0468 11.4565 11.213 11.334 11.3356C11.2114 11.4582 11.0452 11.527 10.8719 11.527C10.6985 11.527 10.5323 11.4582 10.4097 11.3356L6.95806 7.88282L3.50528 11.3345C3.38272 11.4571 3.2165 11.5259 3.04317 11.5259C2.86985 11.5259 2.70362 11.4571 2.58106 11.3345C2.4585 11.212 2.38965 11.0457 2.38965 10.8724C2.38965 10.6991 2.4585 10.5329 2.58106 10.4103L6.03384 6.9586L2.58215 3.50582C2.45959 3.38326 2.39074 3.21704 2.39074 3.04371C2.39074 2.87039 2.45959 2.70416 2.58215 2.5816C2.70471 2.45905 2.87093 2.39019 3.04426 2.39019C3.21758 2.39019 3.38381 2.45905 3.50637 2.5816L6.95806 6.03438L10.4108 2.58106C10.5334 2.4585 10.6996 2.38965 10.8729 2.38965C11.0463 2.38965 11.2125 2.4585 11.3351 2.58106C11.4576 2.70362 11.5265 2.86985 11.5265 3.04317C11.5265 3.2165 11.4576 3.38272 11.3351 3.50528L7.88228 6.9586L11.334 10.4114Z" fill="black"/>
</svg>
