<svg width="127" height="22" viewBox="0 0 127 22" fill="none" xmlns="http://www.w3.org/2000/svg">
<path d="M17.9255 7.41999H14.8597C14.7418 6.7649 14.5223 6.18843 14.2014 5.69056C13.8804 5.19269 13.4873 4.77016 13.0222 4.42296C12.5571 4.07576 12.0363 3.81373 11.4598 3.63685C10.8899 3.45998 10.2839 3.37154 9.64193 3.37154C8.48242 3.37154 7.4441 3.66306 6.52698 4.24609C5.6164 4.82912 4.89581 5.68401 4.36518 6.81076C3.84111 7.93751 3.57908 9.3132 3.57908 10.9378C3.57908 12.5755 3.84111 13.9578 4.36518 15.0845C4.89581 16.2113 5.61968 17.0629 6.5368 17.6394C7.45393 18.2159 8.4857 18.5041 9.6321 18.5041C10.2675 18.5041 10.8702 18.4189 11.4401 18.2486C12.0166 18.0717 12.5374 17.813 13.0025 17.4723C13.4677 17.1317 13.8607 16.7157 14.1817 16.2244C14.5092 15.7265 14.7353 15.1566 14.8597 14.5146L17.9255 14.5244C17.7618 15.5136 17.444 16.4242 16.9724 17.2562C16.5073 18.0816 15.9079 18.7956 15.1742 19.3983C14.447 19.9944 13.615 20.4563 12.6783 20.7838C11.7415 21.1114 10.7196 21.2751 9.61245 21.2751C7.86991 21.2751 6.31735 20.8624 4.95476 20.037C3.59218 19.2051 2.51783 18.0161 1.73172 16.4701C0.952167 14.924 0.562389 13.08 0.562389 10.9378C0.562389 8.78913 0.955442 6.94505 1.74155 5.40559C2.52766 3.85958 3.602 2.67387 4.96459 1.84846C6.32718 1.01649 7.87646 0.600512 9.61245 0.600512C10.6802 0.600512 11.676 0.754459 12.5997 1.06235C13.5299 1.36369 14.3651 1.80915 15.1054 2.39873C15.8456 2.98176 16.4581 3.69581 16.9429 4.54088C17.4277 5.37939 17.7552 6.3391 17.9255 7.41999ZM27.6806 21.3046C26.2656 21.3046 25.0308 20.9803 23.9761 20.3318C22.9214 19.6833 22.1025 18.776 21.5195 17.6099C20.9365 16.4439 20.645 15.0813 20.645 13.5222C20.645 11.9565 20.9365 10.5874 21.5195 9.41474C22.1025 8.24213 22.9214 7.33156 23.9761 6.68302C25.0308 6.03448 26.2656 5.71021 27.6806 5.71021C29.0956 5.71021 30.3305 6.03448 31.3852 6.68302C32.4399 7.33156 33.2587 8.24213 33.8418 9.41474C34.4248 10.5874 34.7163 11.9565 34.7163 13.5222C34.7163 15.0813 34.4248 16.4439 33.8418 17.6099C33.2587 18.776 32.4399 19.6833 31.3852 20.3318C30.3305 20.9803 29.0956 21.3046 27.6806 21.3046ZM27.6905 18.8382C28.6076 18.8382 29.3675 18.5958 29.9702 18.1111C30.5729 17.6263 31.0183 16.981 31.3066 16.1753C31.6013 15.3695 31.7487 14.4819 31.7487 13.5123C31.7487 12.5493 31.6013 11.665 31.3066 10.8592C31.0183 10.0469 30.5729 9.39509 29.9702 8.90377C29.3675 8.41245 28.6076 8.1668 27.6905 8.1668C26.7668 8.1668 26.0003 8.41245 25.3911 8.90377C24.7884 9.39509 24.3397 10.0469 24.0449 10.8592C23.7567 11.665 23.6125 12.5493 23.6125 13.5123C23.6125 14.4819 23.7567 15.3695 24.0449 16.1753C24.3397 16.981 24.7884 17.6263 25.3911 18.1111C26.0003 18.5958 26.7668 18.8382 27.6905 18.8382ZM37.9958 21V5.90674H40.816V8.36332H41.0027C41.3171 7.53136 41.8314 6.88282 42.5454 6.41771C43.2595 5.94604 44.1144 5.71021 45.1101 5.71021C46.1189 5.71021 46.964 5.94604 47.6453 6.41771C48.3332 6.88937 48.8408 7.53791 49.1684 8.36332H49.3256C49.6859 7.55756 50.2591 6.91558 51.0452 6.43736C51.8313 5.95259 52.7681 5.71021 53.8556 5.71021C55.2247 5.71021 56.3416 6.13929 57.2063 6.99746C58.0776 7.85563 58.5132 9.14943 58.5132 10.8789V21H55.5752V11.154C55.5752 10.1321 55.2968 9.39181 54.7399 8.93325C54.1831 8.47469 53.5182 8.24541 52.7452 8.24541C51.7887 8.24541 51.0452 8.5402 50.5146 9.12978C49.984 9.71281 49.7187 10.4629 49.7187 11.38V21H46.7904V10.9673C46.7904 10.1484 46.5349 9.49008 46.024 8.99221C45.513 8.49434 44.8481 8.24541 44.0292 8.24541C43.4724 8.24541 42.9581 8.3928 42.4865 8.68759C42.0214 8.97583 41.6447 9.37871 41.3564 9.89623C41.0748 10.4138 40.9339 11.0132 40.9339 11.6945V21H37.9958ZM62.4512 21V5.90674H65.2713V8.36332H65.458C65.7725 7.53136 66.2867 6.88282 67.0007 6.41771C67.7148 5.94604 68.5697 5.71021 69.5654 5.71021C70.5743 5.71021 71.4193 5.94604 72.1006 6.41771C72.7885 6.88937 73.2962 7.53791 73.6237 8.36332H73.7809C74.1412 7.55756 74.7144 6.91558 75.5005 6.43736C76.2866 5.95259 77.2234 5.71021 78.3109 5.71021C79.68 5.71021 80.7969 6.13929 81.6616 6.99746C82.5329 7.85563 82.9686 9.14943 82.9686 10.8789V21H80.0305V11.154C80.0305 10.1321 79.7521 9.39181 79.1952 8.93325C78.6384 8.47469 77.9735 8.24541 77.2005 8.24541C76.2441 8.24541 75.5005 8.5402 74.9699 9.12978C74.4393 9.71281 74.174 10.4629 74.174 11.38V21H71.2457V10.9673C71.2457 10.1484 70.9902 9.49008 70.4793 8.99221C69.9683 8.49434 69.3034 8.24541 68.4845 8.24541C67.9277 8.24541 67.4135 8.3928 66.9418 8.68759C66.4767 8.97583 66.1 9.37871 65.8118 9.89623C65.5301 10.4138 65.3892 11.0132 65.3892 11.6945V21H62.4512ZM93.4115 21.3046C91.9244 21.3046 90.6437 20.9869 89.5694 20.3515C88.5016 19.7095 87.6762 18.8087 87.0932 17.6492C86.5167 16.4832 86.2284 15.1173 86.2284 13.5516C86.2284 12.0056 86.5167 10.643 87.0932 9.46387C87.6762 8.28471 88.4885 7.36431 89.5301 6.70267C90.5782 6.04103 91.8033 5.71021 93.2051 5.71021C94.0568 5.71021 94.8822 5.85106 95.6814 6.13274C96.4806 6.41443 97.1979 6.85662 97.8334 7.4593C98.4688 8.06198 98.9699 8.84481 99.3368 9.8078C99.7036 10.7642 99.8871 11.927 99.8871 13.2961V14.3377H87.8891V12.1366H97.0079C97.0079 11.3636 96.8507 10.6791 96.5363 10.0829C96.2218 9.48025 95.7796 9.00531 95.2097 8.65811C94.6463 8.31092 93.9847 8.13732 93.2248 8.13732C92.3994 8.13732 91.6788 8.3404 91.063 8.74655C90.4538 9.14616 89.9821 9.67023 89.648 10.3188C89.3205 10.9608 89.1567 11.6584 89.1567 12.4118V14.1314C89.1567 15.1402 89.3336 15.9984 89.6873 16.7059C90.0476 17.4134 90.5488 17.9538 91.1907 18.3272C91.8327 18.6941 92.5828 18.8775 93.441 18.8775C93.9978 18.8775 94.5055 18.7989 94.9641 18.6417C95.4226 18.4779 95.819 18.2355 96.153 17.9145C96.4871 17.5935 96.7426 17.1972 96.9195 16.7255L99.7004 17.2267C99.4776 18.0455 99.078 18.7629 98.5015 19.3787C97.9316 19.9879 97.2143 20.4628 96.3496 20.8035C95.4914 21.1376 94.512 21.3046 93.4115 21.3046ZM106.085 12.0384V21H103.147V5.90674H105.967V8.36332H106.154C106.501 7.56411 107.045 6.92213 107.785 6.43736C108.532 5.95259 109.472 5.71021 110.605 5.71021C111.634 5.71021 112.534 5.92639 113.307 6.35875C114.08 6.78456 114.68 7.41999 115.106 8.26506C115.531 9.11013 115.744 10.155 115.744 11.3997V21H112.806V11.7534C112.806 10.6594 112.521 9.80452 111.951 9.18874C111.381 8.5664 110.599 8.25523 109.603 8.25523C108.922 8.25523 108.316 8.40263 107.785 8.69742C107.261 8.99221 106.845 9.42457 106.537 9.9945C106.236 10.5579 106.085 11.2392 106.085 12.0384ZM126.73 5.90674V8.26506H118.486V5.90674H126.73ZM120.697 2.29064H123.635V16.5683C123.635 17.1382 123.72 17.5673 123.89 17.8556C124.061 18.1373 124.28 18.3305 124.549 18.4353C124.824 18.5336 125.122 18.5827 125.443 18.5827C125.679 18.5827 125.885 18.5663 126.062 18.5336C126.239 18.5008 126.376 18.4746 126.475 18.455L127.005 20.8821C126.835 20.9476 126.593 21.0131 126.278 21.0786C125.964 21.1507 125.571 21.19 125.099 21.1965C124.326 21.2096 123.605 21.0721 122.937 20.7838C122.269 20.4956 121.729 20.0501 121.316 19.4474C120.903 18.8448 120.697 18.0881 120.697 17.1776V2.29064Z" fill="black"/>
</svg>
