<svg width="124" height="120" viewBox="0 0 124 120" fill="none" xmlns="http://www.w3.org/2000/svg">
<rect x="0.254726" y="0.256766" width="122.942" height="117.702" rx="44.4656" transform="matrix(0.99977 0.00981235 0.00203773 1.00002 -0.00046463 -0.00299267)" fill="white" stroke="#929292" stroke-width="0.508533"/>
<path d="M62.2299 20.3654C41.679 20.1637 25.036 37.685 25.0804 59.4755C25.1248 81.266 41.8399 99.1147 62.3908 99.3164C82.9417 99.5181 99.5847 81.9968 99.5403 60.2063C99.4959 38.4158 82.7808 20.5671 62.2299 20.3654ZM62.254 32.2081C68.4342 32.2687 73.4338 37.6074 73.4472 44.1603C73.4605 50.7133 68.4825 55.954 62.3023 55.8934C56.1221 55.8327 51.1226 50.494 51.1092 43.9411C51.0959 37.3882 56.0739 32.1474 62.254 32.2081ZM62.3683 88.2633C53.0608 88.1719 44.8227 83.0383 40.0044 75.3329C40.1001 67.4784 54.8716 63.3206 62.3176 63.3937C69.7263 63.4664 84.5526 67.9147 84.6803 75.7714C79.8933 83.3825 71.6757 88.3546 62.3683 88.2633Z" fill="#97E6EF"/>
</svg>
