<svg width="131" height="24" viewBox="0 0 131 24" fill="none" xmlns="http://www.w3.org/2000/svg">
<path d="M0.635294 23.1721V0.582631H15.1067V4.01297H4.72744V10.1457H14.114V13.576H4.72744V23.1721H0.635294ZM39.0198 11.8774C39.0198 14.3114 38.5639 16.396 37.6521 18.1314C36.7476 19.8595 35.5123 21.1831 33.946 22.1022C32.3871 23.0214 30.6186 23.481 28.6406 23.481C26.6625 23.481 24.8903 23.0214 23.3241 22.1022C21.7652 21.1757 20.5298 19.8484 19.618 18.1204C18.7135 16.385 18.2613 14.304 18.2613 11.8774C18.2613 9.44343 18.7135 7.36243 19.618 5.63439C20.5298 3.899 21.7652 2.57171 23.3241 1.65254C24.8903 0.733375 26.6625 0.27379 28.6406 0.27379C30.6186 0.27379 32.3871 0.733375 33.946 1.65254C35.5123 2.57171 36.7476 3.899 37.6521 5.63439C38.5639 7.36243 39.0198 9.44343 39.0198 11.8774ZM34.9056 11.8774C34.9056 10.1641 34.6372 8.71912 34.1004 7.54258C33.571 6.35869 32.8357 5.46526 31.8944 4.86229C30.9532 4.25196 29.8686 3.94679 28.6406 3.94679C27.4125 3.94679 26.3279 4.25196 25.3867 4.86229C24.4455 5.46526 23.7065 6.35869 23.1697 7.54258C22.6402 8.71912 22.3755 10.1641 22.3755 11.8774C22.3755 13.5907 22.6402 15.0393 23.1697 16.2232C23.7065 17.3998 24.4455 18.2932 25.3867 18.9035C26.3279 19.5065 27.4125 19.808 28.6406 19.808C29.8686 19.808 30.9532 19.5065 31.8944 18.9035C32.8357 18.2932 33.571 17.3998 34.1004 16.2232C34.6372 15.0393 34.9056 13.5907 34.9056 11.8774ZM42.8886 23.1721V0.582631H51.3597C53.0951 0.582631 54.551 0.884119 55.7276 1.48709C56.9115 2.09007 57.8049 2.93571 58.4079 4.024C59.0182 5.10495 59.3234 6.36605 59.3234 7.80731C59.3234 9.25592 59.0145 10.5133 58.3968 11.5796C57.7865 12.6385 56.8857 13.4584 55.6945 14.0393C54.5032 14.6128 53.0399 14.8996 51.3045 14.8996H45.2711V11.5024H50.753C51.7678 11.5024 52.5987 11.3627 53.2458 11.0832C53.8929 10.7964 54.3709 10.381 54.6797 9.83683C54.9959 9.28533 55.154 8.60882 55.154 7.80731C55.154 7.00579 54.9959 6.32193 54.6797 5.75572C54.3635 5.18216 53.8819 4.74831 53.2348 4.45417C52.5877 4.15269 51.7531 4.00194 50.731 4.00194H46.9808V23.1721H42.8886ZM54.5584 12.9363L60.1506 23.1721H55.5842L50.0912 12.9363H54.5584ZM65.3733 20.4588C64.7042 20.4588 64.1306 20.2235 63.6527 19.7528C63.1747 19.2749 62.9394 18.7013 62.9467 18.0322C62.9394 17.3703 63.1747 16.8041 63.6527 16.3335C64.1306 15.8629 64.7042 15.6276 65.3733 15.6276C66.0204 15.6276 66.583 15.8629 67.0609 16.3335C67.5463 16.8041 67.7926 17.3703 67.8 18.0322C67.7926 18.4807 67.6749 18.8888 67.447 19.2565C67.2264 19.6242 66.9323 19.9183 66.5646 20.1389C66.2043 20.3521 65.8072 20.4588 65.3733 20.4588ZM65.3733 9.26327C64.7042 9.26327 64.1306 9.02796 63.6527 8.55735C63.1747 8.07938 62.9394 7.50582 62.9467 6.83666C62.9394 6.17486 63.1747 5.60865 63.6527 5.13804C64.1306 4.66007 64.7042 4.42108 65.3733 4.42108C66.0204 4.42108 66.583 4.66007 67.0609 5.13804C67.5463 5.60865 67.7926 6.17486 67.8 6.83666C67.7926 7.27786 67.6749 7.6823 67.447 8.04997C67.2264 8.41764 66.9323 8.71177 66.5646 8.93237C66.2043 9.15297 65.8072 9.26327 65.3733 9.26327ZM71.1062 4.01297V0.582631H89.1293V4.01297H82.1473V23.1721H78.0882V4.01297H71.1062ZM92.6038 23.1721V0.582631H107.296V4.01297H96.6959V10.1457H106.535V13.576H96.6959V19.7418H107.384V23.1721H92.6038ZM130.034 0.582631V23.1721H126.394L115.75 7.78525H115.563V23.1721H111.471V0.582631H115.133L125.766 15.9806H125.964V0.582631H130.034Z" fill="#9590B6"/>
</svg>
