<svg width="17" height="17" viewBox="0 0 17 17" fill="none" xmlns="http://www.w3.org/2000/svg">
<rect x="1.01071" y="1.17868" width="15.5098" height="15.5098" rx="4.16649" stroke="#F2F2F2" stroke-width="0.490175"/>
<path d="M10.3507 9.26471C10.7712 8.93389 11.0781 8.48024 11.2287 7.96687C11.3794 7.4535 11.3663 6.90593 11.1912 6.40036C11.0162 5.89478 10.6879 5.45634 10.2521 5.14602C9.81625 4.8357 9.29453 4.66895 8.75951 4.66895C8.22449 4.66895 7.70278 4.8357 7.26694 5.14602C6.83111 5.45634 6.50284 5.89478 6.3278 6.40036C6.15275 6.90593 6.13964 7.4535 6.29029 7.96687C6.44094 8.48024 6.74785 8.93389 7.16833 9.26471C6.44783 9.55337 5.81917 10.0321 5.34936 10.65C4.87956 11.2678 4.58622 12.0016 4.50063 12.773C4.49444 12.8294 4.4994 12.8863 4.51523 12.9408C4.53106 12.9952 4.55745 13.0459 4.59289 13.0901C4.66448 13.1794 4.7686 13.2366 4.88235 13.2491C4.99609 13.2616 5.11016 13.2284 5.19944 13.1568C5.28872 13.0853 5.3459 12.9811 5.35841 12.8674C5.45259 12.029 5.85236 11.2547 6.48134 10.6924C7.11032 10.1301 7.92442 9.81928 8.76809 9.81928C9.61176 9.81928 10.4259 10.1301 11.0548 10.6924C11.6838 11.2547 12.0836 12.029 12.1778 12.8674C12.1894 12.9728 12.2397 13.0701 12.3189 13.1406C12.3981 13.2111 12.5006 13.2497 12.6067 13.2491H12.6538C12.7663 13.2362 12.869 13.1793 12.9397 13.0909C13.0104 13.0026 13.0433 12.8898 13.0313 12.7773C12.9453 12.0037 12.6503 11.2681 12.1781 10.6493C11.7059 10.0305 11.0742 9.55185 10.3507 9.26471ZM8.75951 8.9602C8.42021 8.9602 8.08852 8.85959 7.8064 8.67108C7.52428 8.48257 7.30439 8.21464 7.17454 7.90116C7.04469 7.58768 7.01072 7.24274 7.07692 6.90995C7.14311 6.57717 7.3065 6.27148 7.54643 6.03156C7.78635 5.79163 8.09204 5.62824 8.42482 5.56205C8.75761 5.49585 9.10255 5.52982 9.41603 5.65967C9.72951 5.78952 9.99744 6.00941 10.1859 6.29153C10.3745 6.57365 10.4751 6.90534 10.4751 7.24464C10.4751 7.69964 10.2943 8.136 9.9726 8.45773C9.65087 8.77946 9.21451 8.9602 8.75951 8.9602Z" fill="#8146FF"/>
</svg>
