<svg width="29" height="29" viewBox="0 0 29 29" fill="none" xmlns="http://www.w3.org/2000/svg">
<rect width="29" height="29" fill="#373737"/>
<g id="V2&#237;&#142;&#152;&#236;&#157;&#180;&#236;&#167;&#128; &#236;&#134;&#140;&#236;&#164;&#145;&#237;&#158;&#136; &#235;&#139;&#164;&#235;&#164;&#132;&#236;&#163;&#188;&#236;&#132;&#184;&#236;&#154;&#148;">
<path d="M-7836 -2113C-7836 -2114.1 -7835.1 -2115 -7834 -2115H2852C2853.1 -2115 2854 -2114.1 2854 -2113V5743C2854 5744.1 2853.1 5745 2852 5745H-7834C-7835.1 5745 -7836 5744.1 -7836 5743V-2113Z" fill="#404040"/>
<path d="M-7834 -2114H2852V-2116H-7834V-2114ZM2853 -2113V5743H2855V-2113H2853ZM2852 5744H-7834V5746H2852V5744ZM-7835 5743V-2113H-7837V5743H-7835ZM-7834 5744C-7834.55 5744 -7835 5743.55 -7835 5743H-7837C-7837 5744.66 -7835.66 5746 -7834 5746V5744ZM2853 5743C2853 5743.55 2852.55 5744 2852 5744V5746C2853.66 5746 2855 5744.66 2855 5743H2853ZM2852 -2114C2852.55 -2114 2853 -2113.55 2853 -2113H2855C2855 -2114.66 2853.66 -2116 2852 -2116V-2114ZM-7834 -2116C-7835.66 -2116 -7837 -2114.66 -7837 -2113H-7835C-7835 -2113.55 -7834.55 -2114 -7834 -2114V-2116Z" fill="white" fill-opacity="0.1"/>
<g id="&#234;&#176;&#149;&#236;&#130;&#172;_&#237;&#149;&#153;&#236;&#131;&#157; &#237;&#143;&#137;&#234;&#176;&#128; &#237;&#142;&#152;&#236;&#157;&#180;&#236;&#167;&#128;">
<rect width="1440" height="1024" transform="translate(-1311 -65)" fill="url(#paint0_linear_0_1)"/>
<rect width="1440" height="1024" transform="translate(-1311 -65)" fill="black" fill-opacity="0.2"/>
<g id="&#237;&#154;&#140;&#236;&#155;&#144;&#236;&#160;&#149;&#235;&#179;&#180; &#236;&#157;&#180;&#235;&#166;&#132;&#236;&#176;&#189;">
<rect id="Rectangle 5577" x="-173.609" y="-15.0859" width="219.414" height="57.2769" rx="5" fill="#636265" fill-opacity="0.42"/>
</g>
<g id="Group 1000004605">
<path id="Vector" d="M17.7699 0.917969H2.32166C1.80952 0.917969 1.31835 1.12868 0.956212 1.50376C0.594073 1.87883 0.390625 2.38754 0.390625 2.91797V26.918C0.390625 27.4484 0.594073 27.9571 0.956212 28.3322C1.31835 28.7073 1.80952 28.918 2.32166 28.918H17.7699C18.2821 28.918 18.7732 28.7073 19.1354 28.3322C19.4975 27.9571 19.701 27.4484 19.701 26.918V20.918H10.6541C10.398 20.918 10.1524 20.8126 9.97135 20.6251C9.79028 20.4375 9.68856 20.1832 9.68856 19.918C9.68856 19.6528 9.79028 19.3984 9.97135 19.2109C10.1524 19.0233 10.398 18.918 10.6541 18.918H19.701V2.91797C19.701 2.38754 19.4975 1.87883 19.1354 1.50376C18.7732 1.12868 18.2821 0.917969 17.7699 0.917969Z" fill="#FFA3AE"/>
<path id="Vector_2" d="M22.7503 14.1975C22.5655 14.0337 22.328 13.9481 22.085 13.9578C21.842 13.9675 21.6115 14.0718 21.4395 14.2499C21.2675 14.428 21.1668 14.6668 21.1574 14.9184C21.148 15.1701 21.2307 15.4162 21.3889 15.6075L24.6523 18.9175H19.6992V20.9175H24.6523L21.3889 24.3775C21.2878 24.4671 21.2057 24.5775 21.1478 24.7015C21.0898 24.8256 21.0572 24.9607 21.0521 25.0984C21.047 25.2362 21.0694 25.3735 21.1179 25.5018C21.1665 25.6301 21.2401 25.7467 21.3342 25.8441C21.4283 25.9416 21.5408 26.0178 21.6647 26.0681C21.7886 26.1184 21.9212 26.1416 22.0542 26.1363C22.1871 26.131 22.3176 26.0972 22.4374 26.0372C22.5572 25.9772 22.6637 25.8922 22.7503 25.7875L28.3889 19.9875L22.7503 14.1975Z" fill="#FFA3AE"/>
</g>
</g>
</g>
<defs>
<linearGradient id="paint0_linear_0_1" x1="856.5" y1="246" x2="4.04749e-05" y2="1024" gradientUnits="userSpaceOnUse">
<stop stop-color="#709D77"/>
<stop offset="1" stop-color="#D9C9C9"/>
</linearGradient>
</defs>
</svg>
