<svg width="149" height="37" viewBox="0 0 149 37" fill="none" xmlns="http://www.w3.org/2000/svg">
<path d="M30.1512 19.45C30.1512 20.1741 29.986 20.8597 29.6955 21.4556C29.6556 21.5325 29.6157 21.6158 29.5702 21.6927C28.9094 22.8461 27.7587 23.6151 26.4485 23.6151H25.4972C23.2698 23.6151 21.4583 25.6528 21.4583 28.1583V32.349C21.4583 33.0219 21.3159 33.6626 21.0596 34.2201C20.4558 35.5786 19.2025 36.5141 17.7556 36.5141V36.5141C17.6108 36.5141 17.4993 36.3894 17.4993 36.2446V27.242C17.4993 26.7357 17.5391 26.2359 17.6246 25.7553C17.7442 24.9992 17.9664 24.2815 18.2626 23.6151C18.9576 22.0644 20.0798 20.802 21.4583 20.0203C21.8628 19.7896 22.2957 19.6038 22.7401 19.4628C23.3553 19.2641 24.0104 19.1616 24.6826 19.1616H29.8512C30.0133 19.1616 30.1512 19.2879 30.1512 19.45V19.45Z" fill="url(#paint0_linear_339_2164)"/>
<path d="M32.7773 17.5667V17.5667C32.7773 17.7254 32.6424 17.8486 32.4837 17.8486H24.6826C24.1414 17.8486 23.6116 17.7781 23.1046 17.65C22.5236 17.509 21.971 17.2847 21.4583 16.99C20.0798 16.2082 18.9576 14.9459 18.2626 13.3952C18.0978 13.0308 17.9613 12.6536 17.8532 12.2573C17.8528 12.2557 17.8513 12.2546 17.8496 12.2546V12.2546C17.8479 12.2546 17.8464 12.2535 17.846 12.2518C17.6186 11.4709 17.4993 10.6324 17.4993 9.7683V4.19386C17.4993 4.04907 17.6108 3.92432 17.7556 3.92432V3.92432C18.2398 3.92432 18.7069 4.03325 19.1342 4.22549C19.2139 4.25753 19.288 4.29597 19.362 4.34083C20.6039 5.00725 21.4583 6.4362 21.4583 8.08944V8.85197C21.4583 11.2863 23.1579 13.2738 25.2916 13.391C25.3599 13.3947 25.4287 13.4016 25.4972 13.4016V13.4016V13.4016C25.5656 13.4016 25.6342 13.3952 25.7026 13.3952H29.0689C29.7183 13.3952 30.3278 13.581 30.8576 13.9078C32.0026 14.6191 32.7773 15.9903 32.7773 17.5667Z" fill="url(#paint1_linear_339_2164)"/>
<path d="M15.7011 27.242V32.9617C15.7011 33.1253 15.5742 33.2654 15.4105 33.2654V33.2654C14.9434 33.2654 14.4991 33.1692 14.0889 32.9898C13.9636 32.9386 13.844 32.8809 13.7244 32.8104C12.6705 32.2081 11.9129 31.0546 11.742 29.6898V28.1583C11.742 25.6528 9.93049 23.6151 7.70315 23.6151H4.06878C3.44216 23.6151 2.84973 23.4421 2.33134 23.1345C1.15786 22.436 0.360352 21.0455 0.360352 19.45V19.45C0.360352 19.2879 0.498277 19.1616 0.66037 19.1616H8.51775C9.11019 19.1616 9.68554 19.2449 10.2324 19.3987C10.7622 19.5397 11.2692 19.7511 11.742 20.0203C13.1205 20.802 14.2427 22.0644 14.9377 23.6151C15.1257 24.0316 15.2795 24.4737 15.3991 24.9287C15.5985 25.6592 15.7011 26.441 15.7011 27.242Z" fill="url(#paint2_linear_339_2164)"/>
<path d="M15.4499 0.51416C15.5917 0.51416 15.7005 0.636234 15.7005 0.77802V9.76713C15.7005 10.3374 15.6493 10.9013 15.541 11.4396C15.4157 12.1252 15.2106 12.7852 14.9372 13.394C14.2422 14.9447 13.12 16.207 11.7415 16.9888C11.3826 17.1939 11.0066 17.3669 10.6135 17.495C9.94706 17.7257 9.24639 17.8475 8.51724 17.8475H3.49601C3.33733 17.8475 3.20239 17.7242 3.20239 17.5655V17.5655C3.20239 16.8799 3.3505 16.2391 3.60684 15.6688C3.66381 15.5406 3.72647 15.4125 3.80053 15.2907C4.45562 14.1501 5.60062 13.394 6.90512 13.394H7.4972C7.56565 13.394 7.63418 13.4004 7.70263 13.4004V13.4004V13.4004C7.77112 13.4004 7.83986 13.3936 7.90824 13.3898C10.0419 13.2726 11.7415 11.2852 11.7415 8.8508V4.68569C11.7415 4.00004 11.8896 3.35926 12.1459 2.78896C12.7554 1.43689 14.0087 0.51416 15.4499 0.51416V0.51416Z" fill="url(#paint3_linear_339_2164)"/>
<path d="M42.4118 24.7388V8.83334H52.6012V11.2487H45.2931V15.5667H51.9023V17.9821H45.2931V24.7388H42.4118ZM69.4386 16.7861C69.4386 18.4998 69.1176 19.9677 68.4756 21.1896C67.8387 22.4063 66.9689 23.3382 65.8661 23.9854C64.7685 24.6326 63.5233 24.9562 62.1305 24.9562C60.7377 24.9562 59.49 24.6326 58.3871 23.9854C57.2895 23.3331 56.4197 22.3985 55.7777 21.1818C55.1408 19.9599 54.8224 18.4946 54.8224 16.7861C54.8224 15.0723 55.1408 13.607 55.7777 12.3903C56.4197 11.1684 57.2895 10.2339 58.3871 9.58668C59.49 8.93948 60.7377 8.61589 62.1305 8.61589C63.5233 8.61589 64.7685 8.93948 65.8661 9.58668C66.9689 10.2339 67.8387 11.1684 68.4756 12.3903C69.1176 13.607 69.4386 15.0723 69.4386 16.7861ZM66.5418 16.7861C66.5418 15.5797 66.3528 14.5623 65.9748 13.7339C65.602 12.9003 65.0843 12.2712 64.4216 11.8467C63.7588 11.4169 62.9952 11.2021 62.1305 11.2021C61.2659 11.2021 60.5022 11.4169 59.8394 11.8467C59.1767 12.2712 58.6564 12.9003 58.2784 13.7339C57.9056 14.5623 57.7192 15.5797 57.7192 16.7861C57.7192 17.9924 57.9056 19.0124 58.2784 19.846C58.6564 20.6744 59.1767 21.3035 59.8394 21.7332C60.5022 22.1578 61.2659 22.37 62.1305 22.37C62.9952 22.37 63.7588 22.1578 64.4216 21.7332C65.0843 21.3035 65.602 20.6744 65.9748 19.846C66.3528 19.0124 66.5418 17.9924 66.5418 16.7861ZM72.1626 24.7388V8.83334H78.1272C79.3491 8.83334 80.3742 9.04562 81.2026 9.47018C82.0362 9.89474 82.6653 10.4902 83.0899 11.2564C83.5196 12.0175 83.7345 12.9055 83.7345 13.9203C83.7345 14.9403 83.517 15.8256 83.0821 16.5764C82.6524 17.3219 82.0181 17.8992 81.1793 18.3083C80.3406 18.7121 79.3102 18.914 78.0883 18.914H73.8402V16.522H77.7C78.4145 16.522 78.9996 16.4236 79.4552 16.2269C79.9108 16.025 80.2474 15.7324 80.4648 15.3493C80.6875 14.961 80.7988 14.4846 80.7988 13.9203C80.7988 13.3559 80.6875 12.8744 80.4648 12.4757C80.2422 12.0719 79.9031 11.7664 79.4475 11.5593C78.9918 11.347 78.4042 11.2409 77.6845 11.2409H75.044V24.7388H72.1626ZM80.3794 17.5316L84.3169 24.7388H81.1017L77.2341 17.5316H80.3794ZM87.9943 22.8283C87.5231 22.8283 87.1193 22.6626 86.7827 22.3312C86.4462 21.9947 86.2805 21.5908 86.2857 21.1197C86.2805 20.6537 86.4462 20.255 86.7827 19.9237C87.1193 19.5923 87.5231 19.4266 87.9943 19.4266C88.4499 19.4266 88.846 19.5923 89.1825 19.9237C89.5243 20.255 89.6977 20.6537 89.7029 21.1197C89.6977 21.4355 89.6149 21.7228 89.4544 21.9817C89.299 22.2406 89.0919 22.4477 88.8331 22.603C88.5794 22.7532 88.2998 22.8283 87.9943 22.8283ZM87.9943 14.9454C87.5231 14.9454 87.1193 14.7798 86.7827 14.4484C86.4462 14.1119 86.2805 13.708 86.2857 13.2368C86.2805 12.7709 86.4462 12.3722 86.7827 12.0408C87.1193 11.7043 87.5231 11.536 87.9943 11.536C88.4499 11.536 88.846 11.7043 89.1825 12.0408C89.5243 12.3722 89.6977 12.7709 89.7029 13.2368C89.6977 13.5475 89.6149 13.8323 89.4544 14.0911C89.299 14.35 89.0919 14.5571 88.8331 14.7124C88.5794 14.8678 88.2998 14.9454 87.9943 14.9454ZM92.0308 11.2487V8.83334H104.721V11.2487H99.8049V24.7388H96.9469V11.2487H92.0308ZM107.167 24.7388V8.83334H117.512V11.2487H110.049V15.5667H116.976V17.9821H110.049V22.3234H117.574V24.7388H107.167ZM133.522 8.83334V24.7388H130.96L123.465 13.9048H123.333V24.7388H120.452V8.83334H123.03L130.517 19.6751H130.657V8.83334H133.522Z" fill="url(#paint4_linear_339_2164)"/>
<defs>
<linearGradient id="paint0_linear_339_2164" x1="23.8252" y1="19.1616" x2="23.8252" y2="36.5141" gradientUnits="userSpaceOnUse">
<stop stop-color="#469BFF"/>
<stop offset="1" stop-color="#FB46FF" stop-opacity="0"/>
</linearGradient>
<linearGradient id="paint1_linear_339_2164" x1="25.1383" y1="3.92432" x2="25.1383" y2="17.8486" gradientUnits="userSpaceOnUse">
<stop stop-color="#469BFF"/>
<stop offset="1" stop-color="#FB46FF" stop-opacity="0"/>
</linearGradient>
<linearGradient id="paint2_linear_339_2164" x1="8.0307" y1="19.1616" x2="8.0307" y2="33.2654" gradientUnits="userSpaceOnUse">
<stop stop-color="#469BFF"/>
<stop offset="1" stop-color="#FB46FF" stop-opacity="0"/>
</linearGradient>
<linearGradient id="paint3_linear_339_2164" x1="9.45146" y1="0.51416" x2="9.45146" y2="17.8475" gradientUnits="userSpaceOnUse">
<stop stop-color="#469BFF"/>
<stop offset="1" stop-color="#FB46FF" stop-opacity="0"/>
</linearGradient>
<linearGradient id="paint4_linear_339_2164" x1="27.071" y1="7.2636" x2="168.247" y2="34.0823" gradientUnits="userSpaceOnUse">
<stop stop-color="#46A6FF"/>
<stop offset="1" stop-color="#FB46FF" stop-opacity="0.21"/>
</linearGradient>
</defs>
</svg>
