<svg width="133" height="35" viewBox="0 0 133 35" fill="none" xmlns="http://www.w3.org/2000/svg">
<path d="M29.827 19.2294C29.827 19.8666 29.6619 20.47 29.3715 20.9945C29.3317 21.0622 29.2918 21.1355 29.2462 21.2032C28.5857 22.2182 27.4356 22.895 26.1259 22.895H25.175C22.9487 22.895 21.138 24.6883 21.138 26.8933V30.5815C21.138 31.1736 20.9956 31.7376 20.7394 32.2282C20.1358 33.4237 18.8832 34.2471 17.4369 34.2471C17.3515 34.2471 17.2661 34.2415 17.1807 34.2358V26.0869C17.1807 25.6414 17.2205 25.2015 17.3059 24.7785C17.4255 24.1131 17.6476 23.4815 17.9437 22.895C18.6383 21.5302 19.76 20.4193 21.138 19.7313C21.5423 19.5282 21.975 19.3647 22.4191 19.2406C23.0341 19.0658 23.6889 18.9756 24.3608 18.9756H29.8156C29.8213 19.0602 29.827 19.1448 29.827 19.2294Z" fill="url(#paint0_linear_612_245)"/>
<path d="M30.8074 15.2387C30.8074 15.3233 30.8017 15.4079 30.796 15.4868H22.7163C22.1753 15.4868 21.6458 15.4248 21.139 15.312C20.5582 15.188 20.0059 14.9906 19.4935 14.7312C18.1155 14.0432 16.9938 12.9322 16.2991 11.5675C16.134 11.246 15.9973 10.9133 15.8892 10.5636H15.8835C15.6557 9.87564 15.5361 9.13688 15.5361 8.37556V3.2437C15.6215 3.23806 15.707 3.23242 15.7924 3.23242C16.2764 3.23242 16.7433 3.32829 17.1703 3.49747C17.25 3.52567 17.324 3.55951 17.3981 3.59898C18.6394 4.18548 19.4935 5.44307 19.4935 6.89803V7.56912C19.4935 9.74593 21.2472 11.5167 23.428 11.5675C23.4622 11.5731 23.4963 11.5731 23.5305 11.5731C23.5647 11.5731 23.5988 11.5731 23.633 11.5675H27.1006C27.7498 11.5675 28.359 11.731 28.8886 12.0186C30.0331 12.6446 30.8074 13.8514 30.8074 15.2387Z" fill="url(#paint1_linear_612_245)"/>
<path d="M15.3339 26.0869V31.3766C15.2371 31.3823 15.1403 31.3879 15.0435 31.3879C14.5766 31.3879 14.1325 31.3033 13.7225 31.1454C13.5973 31.1003 13.4777 31.0495 13.3581 30.9875C12.3047 30.4574 11.5474 29.4423 11.3766 28.2411V26.8933C11.3766 24.6883 9.56592 22.895 7.33956 22.895H3.70679C3.08045 22.895 2.48828 22.7427 1.97012 22.472C0.79716 21.8573 0 20.6336 0 19.2294C0 19.1448 0.00569426 19.0602 0.0113883 18.9756H8.15381C8.74598 18.9756 9.32108 19.0489 9.8677 19.1842C10.3972 19.3083 10.904 19.4944 11.3766 19.7313C12.7546 20.4193 13.8763 21.5302 14.5709 22.895C14.7588 23.2615 14.9126 23.6507 15.0322 24.051C15.2314 24.6939 15.3339 25.3819 15.3339 26.0869Z" fill="url(#paint2_linear_612_245)"/>
<path d="M13.9243 0.0112791V8.1433C13.9243 8.6452 13.873 9.14147 13.7648 9.61518C13.6396 10.2186 13.4346 10.7995 13.1613 11.3352C12.4666 12.6999 11.3449 13.8109 9.96694 14.4989C9.60822 14.6794 9.23241 14.8316 8.83953 14.9444C8.17333 15.1474 7.47297 15.2546 6.74414 15.2546H1.44303C1.43733 15.1756 1.43164 15.091 1.43164 15.0064C1.43164 14.403 1.57968 13.8391 1.83591 13.3372C1.89285 13.2244 1.95549 13.1116 2.02951 13.0045C2.68432 12.0006 3.82881 11.3352 5.13274 11.3352H5.82741C5.86157 11.3408 5.89573 11.3408 5.9299 11.3408C5.96406 11.3408 5.99823 11.3408 6.03239 11.3352C8.21319 11.2844 9.96694 9.51367 9.96694 7.33686V3.67125C9.96694 3.06783 10.115 2.50389 10.3712 2.00199C10.9805 0.812074 12.2332 0 13.6737 0C13.7591 0 13.8446 0.00563966 13.9243 0.0112791Z" fill="url(#paint3_linear_612_245)"/>
<path d="M40.4138 26V11.6657H49.5968V13.8424H43.0105V17.734H48.9668V19.9107H43.0105V26H40.4138ZM64.771 18.8328C64.771 20.3773 64.4817 21.7002 63.9031 22.8014C63.3291 23.8979 62.5452 24.7378 61.5514 25.3211C60.5621 25.9043 59.4399 26.196 58.1847 26.196C56.9296 26.196 55.805 25.9043 54.8111 25.3211C53.8219 24.7331 53.038 23.8909 52.4594 22.7944C51.8855 21.6932 51.5985 20.3727 51.5985 18.8328C51.5985 17.2884 51.8855 15.9678 52.4594 14.8713C53.038 13.7701 53.8219 12.9279 54.8111 12.3446C55.805 11.7613 56.9296 11.4697 58.1847 11.4697C59.4399 11.4697 60.5621 11.7613 61.5514 12.3446C62.5452 12.9279 63.3291 13.7701 63.9031 14.8713C64.4817 15.9678 64.771 17.2884 64.771 18.8328ZM62.1603 18.8328C62.1603 17.7456 61.99 16.8287 61.6493 16.0822C61.3134 15.3309 60.8468 14.764 60.2495 14.3814C59.6522 13.9941 58.964 13.8004 58.1847 13.8004C57.4055 13.8004 56.7173 13.9941 56.12 14.3814C55.5227 14.764 55.0538 15.3309 54.7132 16.0822C54.3772 16.8287 54.2092 17.7456 54.2092 18.8328C54.2092 19.92 54.3772 20.8393 54.7132 21.5905C55.0538 22.3371 55.5227 22.904 56.12 23.2913C56.7173 23.6739 57.4055 23.8653 58.1847 23.8653C58.964 23.8653 59.6522 23.6739 60.2495 23.2913C60.8468 22.904 61.3134 22.3371 61.6493 21.5905C61.99 20.8393 62.1603 19.92 62.1603 18.8328ZM67.2259 26V11.6657H72.6013C73.7025 11.6657 74.6264 11.857 75.373 12.2396C76.1242 12.6222 76.6912 13.1588 77.0738 13.8494C77.4611 14.5353 77.6547 15.3356 77.6547 16.2501C77.6547 17.1694 77.4587 17.9673 77.0668 18.6439C76.6795 19.3158 76.1079 19.8361 75.352 20.2047C74.5961 20.5686 73.6675 20.7506 72.5663 20.7506H68.7378V18.5949H72.2163C72.8603 18.5949 73.3875 18.5062 73.7982 18.3289C74.2088 18.1469 74.5121 17.8833 74.7081 17.538C74.9087 17.188 75.009 16.7588 75.009 16.2501C75.009 15.7415 74.9087 15.3076 74.7081 14.9483C74.5074 14.5843 74.2018 14.309 73.7912 14.1224C73.3805 13.9311 72.8509 13.8354 72.2023 13.8354H69.8226V26H67.2259ZM74.6311 19.5048L78.1796 26H75.282L71.7964 19.5048H74.6311ZM81.4938 24.2782C81.0691 24.2782 80.7052 24.1289 80.4019 23.8303C80.0986 23.527 79.9493 23.163 79.9539 22.7384C79.9493 22.3184 80.0986 21.9591 80.4019 21.6605C80.7052 21.3619 81.0691 21.2126 81.4938 21.2126C81.9044 21.2126 82.2613 21.3619 82.5646 21.6605C82.8726 21.9591 83.0289 22.3184 83.0336 22.7384C83.0289 23.023 82.9543 23.282 82.8096 23.5153C82.6696 23.7486 82.483 23.9352 82.2497 24.0752C82.021 24.2105 81.7691 24.2782 81.4938 24.2782ZM81.4938 17.174C81.0691 17.174 80.7052 17.0247 80.4019 16.7261C80.0986 16.4228 79.9493 16.0588 79.9539 15.6342C79.9493 15.2143 80.0986 14.855 80.4019 14.5563C80.7052 14.253 81.0691 14.1014 81.4938 14.1014C81.9044 14.1014 82.2613 14.253 82.5646 14.5563C82.8726 14.855 83.0289 15.2143 83.0336 15.6342C83.0289 15.9142 82.9543 16.1708 82.8096 16.4041C82.6696 16.6374 82.483 16.8241 82.2497 16.9641C82.021 17.104 81.7691 17.174 81.4938 17.174ZM85.1316 13.8424V11.6657H96.5682V13.8424H92.1378V26H89.5621V13.8424H85.1316ZM98.773 26V11.6657H108.096V13.8424H101.37V17.734H107.613V19.9107H101.37V23.8233H108.152V26H98.773ZM122.525 11.6657V26H120.215L113.461 16.2361H113.342V26H110.745V11.6657H113.069L119.816 21.4365H119.942V11.6657H122.525Z" fill="url(#paint4_linear_612_245)"/>
<defs>
<linearGradient id="paint0_linear_612_245" x1="23.5038" y1="18.9756" x2="23.5038" y2="34.2471" gradientUnits="userSpaceOnUse">
<stop stop-color="#469BFF"/>
<stop offset="1" stop-color="#FB46FF" stop-opacity="0"/>
</linearGradient>
<linearGradient id="paint1_linear_612_245" x1="23.1718" y1="3.23242" x2="23.1718" y2="15.4868" gradientUnits="userSpaceOnUse">
<stop stop-color="#469BFF"/>
<stop offset="1" stop-color="#FB46FF" stop-opacity="0"/>
</linearGradient>
<linearGradient id="paint2_linear_612_245" x1="7.66697" y1="18.9756" x2="7.66697" y2="31.3879" gradientUnits="userSpaceOnUse">
<stop stop-color="#469BFF"/>
<stop offset="1" stop-color="#FB46FF" stop-opacity="0"/>
</linearGradient>
<linearGradient id="paint3_linear_612_245" x1="7.67795" y1="0" x2="7.67795" y2="15.2546" gradientUnits="userSpaceOnUse">
<stop stop-color="#469BFF"/>
<stop offset="1" stop-color="#FB46FF" stop-opacity="0"/>
</linearGradient>
<linearGradient id="paint4_linear_612_245" x1="27.0366" y1="9.71981" x2="148.541" y2="35.705" gradientUnits="userSpaceOnUse">
<stop stop-color="#46A6FF"/>
<stop offset="1" stop-color="#FB46FF" stop-opacity="0.21"/>
</linearGradient>
</defs>
</svg>
