<svg width="223" height="39" viewBox="0 0 223 39" fill="none" xmlns="http://www.w3.org/2000/svg">
<path d="M0.838948 39V0.0783846H25.7731V5.98885H7.88969V16.5555H24.0627V22.4659H7.88969V39H0.838948ZM72.021 39V0.0783846H86.6166C89.6067 0.0783846 92.1153 0.597846 94.1425 1.63677C96.1823 2.67569 97.7217 4.13272 98.7606 6.00785C99.8122 7.87031 100.338 10.0432 100.338 12.5265C100.338 15.0224 99.8059 17.1889 98.7416 19.0261C97.69 20.8505 96.138 22.2632 94.0855 23.2641C92.033 24.2524 89.5117 24.7465 86.5216 24.7465H76.126V18.893H85.5714C87.3198 18.893 88.7515 18.6523 89.8664 18.1709C90.9814 17.6767 91.8049 16.9609 92.3371 16.0233C92.8819 15.0731 93.1543 13.9075 93.1543 12.5265C93.1543 11.1455 92.8819 9.96716 92.3371 8.99159C91.7922 8.00334 90.9624 7.25582 89.8474 6.74903C88.7325 6.22957 87.2945 5.96984 85.5334 5.96984H79.0718V39H72.021ZM92.128 21.3636L101.763 39H93.8954L84.4311 21.3636H92.128ZM110.762 34.3248C109.609 34.3248 108.621 33.9194 107.797 33.1085C106.974 32.285 106.568 31.2968 106.581 30.1438C106.568 29.0035 106.974 28.028 107.797 27.2171C108.621 26.4062 109.609 26.0008 110.762 26.0008C111.877 26.0008 112.846 26.4062 113.67 27.2171C114.506 28.028 114.93 29.0035 114.943 30.1438C114.93 30.9167 114.728 31.6198 114.335 32.2533C113.955 32.8868 113.448 33.3936 112.815 33.7737C112.194 34.1411 111.51 34.3248 110.762 34.3248ZM110.762 15.0351C109.609 15.0351 108.621 14.6296 107.797 13.8188C106.974 12.9952 106.568 12.007 106.581 10.854C106.568 9.71376 106.974 8.73819 107.797 7.92732C108.621 7.10379 109.609 6.69202 110.762 6.69202C111.877 6.69202 112.846 7.10379 113.67 7.92732C114.506 8.73819 114.93 9.71376 114.943 10.854C114.93 11.6142 114.728 12.3111 114.335 12.9446C113.955 13.5781 113.448 14.0848 112.815 14.4649C112.194 14.845 111.51 15.0351 110.762 15.0351ZM120.64 5.98885V0.0783846H151.693V5.98885H139.663V39H132.67V5.98885H120.64ZM157.68 39V0.0783846H182.994V5.98885H164.731V16.5555H181.683V22.4659H164.731V33.0895H183.146V39H157.68ZM222.172 0.0783846V39H215.901L197.561 12.4885H197.238V39H190.187V0.0783846H196.497L214.818 26.6089H215.16V0.0783846H222.172Z" fill="white"/>
</svg>
