<svg width="23" height="23" viewBox="0 0 23 23" fill="none" xmlns="http://www.w3.org/2000/svg">
<rect x="0.5" y="0.5" width="22" height="22" rx="3.91157" stroke="white"/>
<path d="M13.7804 11.9758C14.3848 11.5002 14.826 10.8481 15.0426 10.1101C15.2591 9.37218 15.2403 8.58505 14.9886 7.85829C14.737 7.13153 14.2651 6.50126 13.6386 6.05518C13.0121 5.6091 12.2621 5.36938 11.493 5.36938C10.724 5.36938 9.97399 5.6091 9.34748 6.05518C8.72097 6.50126 8.24908 7.13153 7.99745 7.85829C7.74583 8.58505 7.72698 9.37218 7.94354 10.1101C8.16009 10.8481 8.60128 11.5002 9.20572 11.9758C8.17 12.3908 7.2663 13.079 6.59095 13.9671C5.91561 14.8553 5.49394 15.9101 5.37091 17.019C5.362 17.1 5.36913 17.1819 5.39188 17.2601C5.41464 17.3383 5.45258 17.4113 5.50353 17.4748C5.60643 17.6032 5.7561 17.6854 5.91962 17.7034C6.08313 17.7213 6.24709 17.6736 6.37543 17.5707C6.50377 17.4678 6.58598 17.3182 6.60397 17.1546C6.73935 15.9495 7.31401 14.8364 8.21817 14.0281C9.12234 13.2198 10.2926 12.773 11.5054 12.773C12.7182 12.773 13.8884 13.2198 14.7926 14.0281C15.6967 14.8364 16.2714 15.9495 16.4068 17.1546C16.4235 17.3061 16.4958 17.4461 16.6097 17.5474C16.7235 17.6487 16.8709 17.7043 17.0233 17.7034H17.0911C17.2527 17.6848 17.4005 17.603 17.5021 17.476C17.6037 17.349 17.651 17.1869 17.6337 17.0252C17.5101 15.9131 17.0861 14.8556 16.4073 13.9661C15.7285 13.0766 14.8204 12.3886 13.7804 11.9758V11.9758ZM11.493 11.5381C11.0053 11.5381 10.5285 11.3934 10.1229 11.1225C9.71739 10.8515 9.4013 10.4663 9.21465 10.0157C9.02799 9.56507 8.97916 9.06921 9.07431 8.59083C9.16947 8.11245 9.40434 7.67303 9.74924 7.32814C10.0941 6.98325 10.5335 6.74837 11.0119 6.65322C11.4903 6.55806 11.9862 6.6069 12.4368 6.79355C12.8874 6.98021 13.2726 7.2963 13.5435 7.70185C13.8145 8.1074 13.9592 8.5842 13.9592 9.07195C13.9592 9.726 13.6993 10.3533 13.2369 10.8158C12.7744 11.2782 12.1471 11.5381 11.493 11.5381Z" fill="white"/>
</svg>
