<svg width="40" height="40" viewBox="0 0 40 40" fill="none" xmlns="http://www.w3.org/2000/svg">
<path d="M20.0002 0.902344C9.42016 0.902344 0.833496 9.48901 0.833496 20.069C0.833496 30.649 9.42016 39.2357 20.0002 39.2357C30.5802 39.2357 39.1668 30.649 39.1668 20.069C39.1668 9.48901 30.5802 0.902344 20.0002 0.902344ZM20.0002 6.65234C23.1818 6.65234 25.7502 9.22068 25.7502 12.4023C25.7502 15.584 23.1818 18.1523 20.0002 18.1523C16.8185 18.1523 14.2502 15.584 14.2502 12.4023C14.2502 9.22068 16.8185 6.65234 20.0002 6.65234ZM20.0002 33.869C15.2085 33.869 10.9727 31.4157 8.50016 27.6973C8.55766 23.8832 16.1668 21.794 20.0002 21.794C23.8143 21.794 31.4427 23.8832 31.5002 27.6973C29.0277 31.4157 24.7918 33.869 20.0002 33.869Z" fill="#F1E4FF"/>
</svg>
