<svg width="17" height="17" viewBox="0 0 17 17" fill="none" xmlns="http://www.w3.org/2000/svg">
<rect x="0.708854" y="0.835807" width="15.5237" height="15.5237" rx="4.04857" stroke="#F2F2F2" stroke-width="0.476302"/>
<path d="M12.3125 8.60358C12.1993 8.60358 12.0908 8.64855 12.0107 8.72859C11.9307 8.80863 11.8857 8.91719 11.8857 9.03039V11.5912C11.8857 11.7044 11.8407 11.813 11.7607 11.893C11.6806 11.9731 11.5721 12.0181 11.4589 12.0181H5.48355C5.37036 12.0181 5.2618 11.9731 5.18175 11.893C5.10171 11.813 5.05674 11.7044 5.05674 11.5912V5.61591C5.05674 5.50271 5.10171 5.39415 5.18175 5.31411C5.2618 5.23407 5.37036 5.1891 5.48355 5.1891H8.04441C8.15761 5.1891 8.26617 5.14413 8.34621 5.06409C8.42625 4.98405 8.47122 4.87549 8.47122 4.76229C8.47122 4.6491 8.42625 4.54053 8.34621 4.46049C8.26617 4.38045 8.15761 4.33548 8.04441 4.33548H5.48355C5.14396 4.33548 4.81828 4.47038 4.57815 4.71051C4.33803 4.95064 4.20312 5.27632 4.20312 5.61591V11.5912C4.20312 11.9308 4.33803 12.2565 4.57815 12.4966C4.81828 12.7368 5.14396 12.8717 5.48355 12.8717H11.4589C11.7985 12.8717 12.1242 12.7368 12.3643 12.4966C12.6044 12.2565 12.7393 11.9308 12.7393 11.5912V9.03039C12.7393 8.91719 12.6944 8.80863 12.6143 8.72859C12.5343 8.64855 12.4257 8.60358 12.3125 8.60358ZM5.91036 8.92795V10.7376C5.91036 10.8508 5.95533 10.9594 6.03537 11.0394C6.11542 11.1195 6.22398 11.1644 6.33717 11.1644H8.14685C8.20302 11.1648 8.2587 11.154 8.3107 11.1328C8.3627 11.1115 8.41 11.0802 8.44988 11.0407L11.4034 8.08287L12.6155 6.89634C12.6555 6.85666 12.6873 6.80946 12.709 6.75745C12.7306 6.70544 12.7418 6.64965 12.7418 6.59331C12.7418 6.53696 12.7306 6.48118 12.709 6.42916C12.6873 6.37715 12.6555 6.32995 12.6155 6.29027L10.8059 4.45926C10.7662 4.41925 10.719 4.3875 10.667 4.36583C10.615 4.34416 10.5592 4.33301 10.5028 4.33301C10.4465 4.33301 10.3907 4.34416 10.3387 4.36583C10.2867 4.3875 10.2395 4.41925 10.1998 4.45926L8.9962 5.66713L6.03414 8.62492C5.99458 8.6648 5.96329 8.7121 5.94205 8.7641C5.92081 8.8161 5.91004 8.87178 5.91036 8.92795ZM10.5028 5.36409L11.7107 6.57196L11.1046 7.17803L9.89677 5.97016L10.5028 5.36409ZM6.76398 9.10295L9.29496 6.57196L10.5028 7.77984L7.97185 10.3108H6.76398V9.10295Z" fill="#8146FF"/>
</svg>
