<svg width="62" height="62" viewBox="0 0 62 62" fill="none" xmlns="http://www.w3.org/2000/svg">
<path d="M31 61C47.5685 61 61 47.5685 61 31C61 14.4315 47.5685 1 31 1C14.4315 1 1 14.4315 1 31C1 47.5685 14.4315 61 31 61Z" stroke="#F9FAFB" stroke-width="2" stroke-linecap="round"/>
<path d="M18.6426 43.7323C20.1216 42.4513 22.0686 41.5273 24.1686 40.9213C26.3919 40.2994 28.6909 39.9894 30.9996 40.0003C33.3576 40.0003 35.7096 40.3093 37.8306 40.9213C39.9306 41.5273 41.8806 42.4513 43.3566 43.7323" stroke="#F9FAFB" stroke-width="2" stroke-linecap="round"/>
<path d="M22 28.75C24.0711 28.75 25.75 27.0711 25.75 25C25.75 22.9289 24.0711 21.25 22 21.25C19.9289 21.25 18.25 22.9289 18.25 25C18.25 27.0711 19.9289 28.75 22 28.75Z" fill="#F9FAFB" stroke="#F9FAFB" stroke-width="0.5" stroke-linecap="round"/>
<path d="M40 28.75C42.0711 28.75 43.75 27.0711 43.75 25C43.75 22.9289 42.0711 21.25 40 21.25C37.9289 21.25 36.25 22.9289 36.25 25C36.25 27.0711 37.9289 28.75 40 28.75Z" fill="#F9FAFB" stroke="#F9FAFB" stroke-width="0.5" stroke-linecap="round"/>
</svg>
