<svg width="29" height="28" viewBox="0 0 29 28" fill="none" xmlns="http://www.w3.org/2000/svg">
<mask id="path-1-inside-1_368_900" fill="white">
<path d="M18.9541 16.8839H18.0168L17.6846 16.5689C19.1083 14.9355 19.8439 12.7072 19.4405 10.3389C18.8829 7.09553 16.1305 4.50553 12.8086 4.10887C7.7902 3.5022 3.56668 7.65553 4.1836 12.5905C4.58697 15.8572 7.22074 18.5639 10.5189 19.1122C12.9272 19.5089 15.1932 18.7855 16.8542 17.3855L17.1745 17.7122V18.6339L22.2166 23.5922C22.703 24.0705 23.4979 24.0705 23.9843 23.5922C24.4708 23.1139 24.4708 22.3322 23.9843 21.8539L18.9541 16.8839ZM11.8358 16.8839C8.88168 16.8839 6.49704 14.5389 6.49704 11.6339C6.49704 8.72887 8.88168 6.38387 11.8358 6.38387C14.7899 6.38387 17.1745 8.72887 17.1745 11.6339C17.1745 14.5389 14.7899 16.8839 11.8358 16.8839Z"/>
</mask>
<path d="M18.9541 16.8839H18.0168L17.6846 16.5689C19.1083 14.9355 19.8439 12.7072 19.4405 10.3389C18.8829 7.09553 16.1305 4.50553 12.8086 4.10887C7.7902 3.5022 3.56668 7.65553 4.1836 12.5905C4.58697 15.8572 7.22074 18.5639 10.5189 19.1122C12.9272 19.5089 15.1932 18.7855 16.8542 17.3855L17.1745 17.7122V18.6339L22.2166 23.5922C22.703 24.0705 23.4979 24.0705 23.9843 23.5922C24.4708 23.1139 24.4708 22.3322 23.9843 21.8539L18.9541 16.8839ZM11.8358 16.8839C8.88168 16.8839 6.49704 14.5389 6.49704 11.6339C6.49704 8.72887 8.88168 6.38387 11.8358 6.38387C14.7899 6.38387 17.1745 8.72887 17.1745 11.6339C17.1745 14.5389 14.7899 16.8839 11.8358 16.8839Z" fill="#C4C4C4"/>
<path d="M18.9541 16.8839L22.1723 13.6266L20.8346 12.3049H18.9541V16.8839ZM18.0168 16.8839L14.8661 20.2065L16.191 21.4628H18.0168V16.8839ZM17.6846 16.5689L14.2329 13.5602L11.3478 16.8702L14.5339 19.8915L17.6846 16.5689ZM19.4405 10.3389L23.9544 9.57006L23.9532 9.56303L19.4405 10.3389ZM12.8086 4.10887L12.2591 8.65472L12.2657 8.65552L12.8086 4.10887ZM4.1836 12.5905L8.72803 12.0294L8.72718 12.0225L4.1836 12.5905ZM10.5189 19.1122L9.76792 23.6292L9.77474 23.6303L10.5189 19.1122ZM16.8542 17.3855L20.1236 14.1796L17.1502 11.1474L13.9031 13.8844L16.8542 17.3855ZM17.1745 17.7122H21.7534V15.8418L20.4439 14.5063L17.1745 17.7122ZM17.1745 18.6339H12.5956V20.553L13.9639 21.8987L17.1745 18.6339ZM23.9843 21.8539L20.7661 25.1111L20.7738 25.1187L23.9843 21.8539ZM18.9541 12.3049H18.0168V21.4628H18.9541V12.3049ZM21.1675 13.5613L20.8354 13.2463L14.5339 19.8915L14.8661 20.2065L21.1675 13.5613ZM21.1364 19.5775C23.4075 16.9719 24.6024 13.3743 23.9544 9.57006L14.9265 11.1077C15.0854 12.0401 14.8091 12.8992 14.2329 13.5602L21.1364 19.5775ZM23.9532 9.56303C23.0455 4.28339 18.6451 0.194329 13.3515 -0.437779L12.2657 8.65552C13.6159 8.81674 14.7202 9.90768 14.9277 11.1147L23.9532 9.56303ZM13.3581 -0.436984C5.48584 -1.38865 -1.3591 5.16615 -0.359987 13.1585L8.72718 12.0225C8.49246 10.1449 10.0946 8.39306 12.2591 8.65472L13.3581 -0.436984ZM-0.360836 13.1517C0.297369 18.4821 4.5192 22.7565 9.76792 23.6291L11.2699 14.5953C9.92228 14.3712 8.87657 13.2323 8.72803 12.0294L-0.360836 13.1517ZM9.77474 23.6303C13.563 24.2542 17.1669 23.1105 19.8053 20.8867L13.9031 13.8844C13.2196 14.4605 12.2915 14.7635 11.263 14.5941L9.77474 23.6303ZM13.5848 20.5914L13.9051 20.9181L20.4439 14.5063L20.1236 14.1796L13.5848 20.5914ZM12.5956 17.7122V18.6339H21.7534V17.7122H12.5956ZM13.9639 21.8987L19.0061 26.857L25.4272 20.3274L20.3851 15.369L13.9639 21.8987ZM19.0061 26.857C21.2743 29.0875 24.9267 29.0875 27.1949 26.857L20.7738 20.3274C22.0691 19.0535 24.1318 19.0535 25.4272 20.3274L19.0061 26.857ZM27.1949 26.857C29.5058 24.5845 29.5058 20.8616 27.1949 18.589L20.7738 25.1187C19.4357 23.8028 19.4357 21.6432 20.7738 20.3274L27.1949 26.857ZM27.2026 18.5966L22.1723 13.6266L15.7358 20.1411L20.7661 25.1111L27.2026 18.5966ZM11.8358 12.3049C11.3379 12.3049 11.076 11.9379 11.076 11.6339H1.9181C1.9181 17.1398 6.42544 21.4628 11.8358 21.4628V12.3049ZM11.076 11.6339C11.076 11.3298 11.3379 10.9628 11.8358 10.9628V1.80492C6.42544 1.80492 1.9181 6.12794 1.9181 11.6339H11.076ZM11.8358 10.9628C12.3336 10.9628 12.5956 11.3298 12.5956 11.6339H21.7534C21.7534 6.12794 17.2461 1.80492 11.8358 1.80492V10.9628ZM12.5956 11.6339C12.5956 11.9379 12.3336 12.3049 11.8358 12.3049V21.4628C17.2461 21.4628 21.7534 17.1398 21.7534 11.6339H12.5956Z" fill="#C4C4C4" mask="url(#path-1-inside-1_368_900)"/>
</svg>
