<svg width="22" height="20" viewBox="0 0 22 20" fill="none" xmlns="http://www.w3.org/2000/svg">
<path d="M15.7979 12.3684H14.8317L14.4892 12.0712C15.957 10.5306 16.7153 8.42879 16.2994 6.19489C15.7246 3.13566 12.8868 0.692678 9.46203 0.318528C4.28811 -0.253702 -0.0663024 3.66387 0.569735 8.31874C0.985606 11.4 3.701 13.953 7.10135 14.4702C9.58434 14.8444 11.9206 14.1621 13.633 12.8416L13.9632 13.1497V14.019L19.1616 18.6959C19.6631 19.1471 20.4826 19.1471 20.9841 18.6959C21.4856 18.2447 21.4856 17.5074 20.9841 17.0562L15.7979 12.3684ZM8.45905 12.3684C5.41341 12.3684 2.95488 10.1565 2.95488 7.41638C2.95488 4.67628 5.41341 2.46439 8.45905 2.46439C11.5047 2.46439 13.9632 4.67628 13.9632 7.41638C13.9632 10.1565 11.5047 12.3684 8.45905 12.3684Z" fill="white"/>
</svg>
