<svg width="21" height="19" viewBox="0 0 21 19" fill="none" xmlns="http://www.w3.org/2000/svg">
<path d="M15.2901 12.1055H14.3238L13.9814 11.8084C15.4491 10.2678 16.2075 8.16597 15.7916 5.93207C15.2167 2.87284 12.379 0.429861 8.95422 0.0557105C3.7803 -0.516519 -0.574115 3.40105 0.0619227 8.05592C0.477793 11.1372 3.19319 13.6902 6.59354 14.2074C9.07653 14.5815 11.4127 13.8993 13.1252 12.5787L13.4554 12.8869V13.7562L18.6538 18.4331C19.1553 18.8843 19.9748 18.8843 20.4763 18.4331C20.9778 17.9819 20.9778 17.2446 20.4763 16.7934L15.2901 12.1055ZM7.95124 12.1055C4.90559 12.1055 2.44706 9.89366 2.44706 7.15356C2.44706 4.41346 4.90559 2.20157 7.95124 2.20157C10.9969 2.20157 13.4554 4.41346 13.4554 7.15356C13.4554 9.89366 10.9969 12.1055 7.95124 12.1055Z" fill="#9E9E9E"/>
</svg>
