<svg width="154" height="35" viewBox="0 0 154 35" fill="none" xmlns="http://www.w3.org/2000/svg">
<path d="M31.6018 18.2537C31.6018 18.9337 31.4315 19.5777 31.1321 20.1373C31.091 20.2095 31.0499 20.2878 31.0029 20.36C30.3219 21.4432 29.1359 22.1654 27.7855 22.1654H26.8051C24.5095 22.1654 22.6424 24.079 22.6424 26.432V30.3677C22.6424 30.9996 22.4957 31.6014 22.2315 32.125C21.6091 33.4008 20.3175 34.2794 18.8262 34.2794C18.7381 34.2794 18.6501 34.2734 18.562 34.2673V25.5715C18.562 25.0961 18.6031 24.6267 18.6912 24.1753C18.8145 23.4652 19.0434 22.7912 19.3487 22.1654C20.065 20.709 21.2216 19.5235 22.6424 18.7893C23.0593 18.5727 23.5055 18.3981 23.9634 18.2658C24.5975 18.0792 25.2727 17.9829 25.9655 17.9829H31.59C31.5959 18.0732 31.6018 18.1634 31.6018 18.2537Z" fill="url(#paint0_linear_339_1962)"/>
<path d="M34.3084 16.4889C34.3084 16.5791 34.3025 16.6694 34.2966 16.7537H25.9655C25.4077 16.7537 24.8617 16.6875 24.3392 16.5671C23.7403 16.4347 23.1708 16.2241 22.6424 15.9473C21.2216 15.2131 20.065 14.0275 19.3487 12.5712C19.1785 12.2282 19.0376 11.8731 18.926 11.5H18.9202C18.6853 10.7658 18.562 9.9775 18.562 9.16508V3.68879C18.6501 3.68278 18.7381 3.67676 18.8262 3.67676C19.3253 3.67676 19.8067 3.77906 20.247 3.9596C20.3292 3.98969 20.4055 4.0258 20.4819 4.06792C21.7618 4.69378 22.6424 6.03577 22.6424 7.58839V8.30452C22.6424 10.6274 24.4507 12.5171 26.6994 12.5712C26.7346 12.5772 26.7698 12.5772 26.8051 12.5772C26.8403 12.5772 26.8755 12.5772 26.9107 12.5712H30.4863C31.1556 12.5712 31.7838 12.7457 32.3298 13.0526C33.5099 13.7206 34.3084 15.0085 34.3084 16.4889Z" fill="url(#paint1_linear_339_1962)"/>
<path d="M16.7089 25.5715V31.2163C16.6091 31.2223 16.5093 31.2283 16.4094 31.2283C15.928 31.2283 15.4701 31.138 15.0473 30.9695C14.9182 30.9214 14.7949 30.8672 14.6716 30.801C13.5854 30.2354 12.8046 29.1521 12.6284 27.8703V26.432C12.6284 24.079 10.7614 22.1654 8.46582 22.1654H4.72005C4.07423 22.1654 3.46363 22.0029 2.92936 21.714C1.71991 21.0581 0.897949 19.7522 0.897949 18.2537C0.897949 18.1634 0.903821 18.0732 0.909692 17.9829H9.30539C9.91599 17.9829 10.509 18.0611 11.0726 18.2056C11.6186 18.338 12.1411 18.5366 12.6284 18.7893C14.0493 19.5235 15.2059 20.709 15.9221 22.1654C16.1159 22.5565 16.2744 22.9717 16.3977 23.399C16.6032 24.0851 16.7089 24.8192 16.7089 25.5715Z" fill="url(#paint2_linear_339_1962)"/>
<path d="M16.7074 0.483227V9.16104C16.7074 9.69663 16.6546 10.2262 16.543 10.7317C16.4139 11.3756 16.2025 11.9955 15.9207 12.5672C15.2044 14.0235 14.0478 15.209 12.627 15.9432C12.2571 16.1358 11.8696 16.2983 11.4645 16.4186C10.7776 16.6353 10.0554 16.7496 9.30393 16.7496H3.83791C3.83204 16.6654 3.82617 16.5751 3.82617 16.4848C3.82617 15.8409 3.97882 15.2391 4.24302 14.7035C4.30173 14.5832 4.36631 14.4628 4.44264 14.3485C5.11782 13.2773 6.29791 12.5672 7.6424 12.5672H8.35868C8.3939 12.5732 8.42913 12.5732 8.46436 12.5732C8.49958 12.5732 8.53481 12.5732 8.57004 12.5672C10.8187 12.513 12.627 10.6234 12.627 8.30048V4.38884C12.627 3.74493 12.7796 3.14314 13.0438 2.60755C13.672 1.33777 14.9637 0.471191 16.4491 0.471191C16.5371 0.471191 16.6252 0.47721 16.7074 0.483227Z" fill="url(#paint3_linear_339_1962)"/>
<path d="M51.5111 19.8986H54.567V23.3452H51.5111V19.8986ZM60.8168 6.96255H63.8727V28.2393H60.8168V6.96255ZM46.594 24.7008L46.2263 22.2423C50.0865 22.2193 55.2334 22.2193 59.7139 21.6219L59.9207 23.8277C55.3023 24.6779 50.3622 24.7008 46.594 24.7008ZM46.6399 9.30621H59.4382V11.6958H46.6399V9.30621ZM53.0276 12.546C56.1754 12.546 58.3582 14.1544 58.3582 16.521C58.3582 18.9106 56.1754 20.519 53.0276 20.519C49.9257 20.519 47.7428 18.9106 47.7428 16.521C47.7428 14.1544 49.9257 12.546 53.0276 12.546ZM53.0276 14.8437C51.6489 14.8437 50.6609 15.4411 50.6609 16.521C50.6609 17.6239 51.6489 18.2213 53.0276 18.2213C54.4521 18.2213 55.4401 17.6239 55.4401 16.521C55.4401 15.4411 54.4521 14.8437 53.0276 14.8437ZM51.5111 7.05445H54.567V10.6848H51.5111V7.05445ZM72.786 17.8766H75.842V22.541H72.786V17.8766ZM82.1147 6.96255H85.1707V23.0695H82.1147V6.96255ZM69.845 25.4361H85.6302V27.8717H69.845V25.4361ZM69.845 21.553H72.9009V26.0795H69.845V21.553ZM67.5473 18.7957L67.1796 16.3602C71.0627 16.3602 76.2556 16.3142 80.7131 15.7398L80.8969 17.9226C76.3704 18.6808 71.3844 18.7957 67.5473 18.7957ZM78.0937 19.3242H82.781V21.4151H78.0937V19.3242ZM74.0268 7.69781C77.1287 7.69781 79.3115 9.23727 79.3115 11.489C79.3115 13.7638 77.1287 15.2802 74.0268 15.2802C70.9019 15.2802 68.7191 13.7638 68.7191 11.489C68.7191 9.23727 70.9019 7.69781 74.0268 7.69781ZM74.0268 9.92659C72.6022 9.92659 71.6142 10.4551 71.6142 11.489C71.6142 12.523 72.6022 13.0515 74.0268 13.0515C75.4284 13.0515 76.4164 12.523 76.4164 11.489C76.4164 10.4551 75.4284 9.92659 74.0268 9.92659ZM101.988 6.93957H105.067V28.2163H101.988V6.93957ZM104.263 15.0734H108.008V17.5779H104.263V15.0734ZM96.4046 9.14537H99.3916C99.3916 15.533 96.9561 21.0015 89.8792 24.563L88.1788 22.2423C93.7623 19.3472 96.4046 15.4411 96.4046 9.67384V9.14537ZM89.3507 9.14537H97.9671V11.6039H89.3507V9.14537ZM124.136 6.96255H127.215V18.4051H124.136V6.96255ZM113.061 19.3242H116.071V21.3002H124.182V19.3242H127.215V28.0095H113.061V19.3242ZM116.071 23.6439V25.574H124.182V23.6439H116.071ZM115.635 7.83567C118.943 7.83567 121.402 9.92659 121.402 12.8676C121.402 15.8087 118.943 17.8996 115.635 17.8996C112.326 17.8996 109.844 15.8087 109.844 12.8676C109.844 9.92659 112.326 7.83567 115.635 7.83567ZM115.635 10.3632C114.003 10.3632 112.831 11.3052 112.831 12.8676C112.831 14.4531 114.003 15.3721 115.635 15.3721C117.243 15.3721 118.415 14.4531 118.415 12.8676C118.415 11.3052 117.243 10.3632 115.635 10.3632Z" fill="url(#paint4_linear_339_1962)"/>
<defs>
<linearGradient id="paint0_linear_339_1962" x1="25.0819" y1="17.9829" x2="25.0819" y2="34.2794" gradientUnits="userSpaceOnUse">
<stop stop-color="#469BFF"/>
<stop offset="1" stop-color="#FB46FF" stop-opacity="0"/>
</linearGradient>
<linearGradient id="paint1_linear_339_1962" x1="26.4352" y1="3.67676" x2="26.4352" y2="16.7537" gradientUnits="userSpaceOnUse">
<stop stop-color="#469BFF"/>
<stop offset="1" stop-color="#FB46FF" stop-opacity="0"/>
</linearGradient>
<linearGradient id="paint2_linear_339_1962" x1="8.80341" y1="17.9829" x2="8.80341" y2="31.2283" gradientUnits="userSpaceOnUse">
<stop stop-color="#469BFF"/>
<stop offset="1" stop-color="#FB46FF" stop-opacity="0"/>
</linearGradient>
<linearGradient id="paint3_linear_339_1962" x1="10.2668" y1="0.471191" x2="10.2668" y2="16.7496" gradientUnits="userSpaceOnUse">
<stop stop-color="#469BFF"/>
<stop offset="1" stop-color="#FB46FF" stop-opacity="0"/>
</linearGradient>
<linearGradient id="paint4_linear_339_1962" x1="31.3432" y1="7.20166" x2="171.411" y2="38.5634" gradientUnits="userSpaceOnUse">
<stop stop-color="#46A6FF"/>
<stop offset="1" stop-color="#FB46FF" stop-opacity="0.21"/>
</linearGradient>
</defs>
</svg>
