<svg width="82" height="23" viewBox="0 0 82 23" fill="none" xmlns="http://www.w3.org/2000/svg">
<path d="M5.31869 13.7043H8.37464V17.1508H5.31869V13.7043ZM14.6244 0.768211H17.6803V22.045H14.6244V0.768211ZM0.4016 18.5065L0.0339672 16.0479C3.89411 16.025 9.04097 16.025 13.5215 15.4276L13.7283 17.6334C9.1099 18.4835 4.16984 18.5065 0.4016 18.5065ZM0.447554 3.11187H13.2458V5.50148H0.447554V3.11187ZM6.83517 6.35163C9.98303 6.35163 12.1658 7.96003 12.1658 10.3267C12.1658 12.7163 9.98303 14.3247 6.83517 14.3247C3.73327 14.3247 1.55045 12.7163 1.55045 10.3267C1.55045 7.96003 3.73327 6.35163 6.83517 6.35163ZM6.83517 8.64934C5.45655 8.64934 4.46854 9.24674 4.46854 10.3267C4.46854 11.4296 5.45655 12.027 6.83517 12.027C8.25975 12.027 9.24776 11.4296 9.24776 10.3267C9.24776 9.24674 8.25975 8.64934 6.83517 8.64934ZM5.31869 0.860118H8.37464V4.49049H5.31869V0.860118ZM26.5936 11.6823H29.6496V16.3466H26.5936V11.6823ZM35.9223 0.768211H38.9783V16.8751H35.9223V0.768211ZM23.6526 19.2418H39.4378V21.6773H23.6526V19.2418ZM23.6526 15.3586H26.7085V19.8851H23.6526V15.3586ZM21.3549 12.6014L20.9872 10.1658C24.8704 10.1658 30.0632 10.1199 34.5207 9.54544L34.7045 11.7283C30.1781 12.4865 25.192 12.6014 21.3549 12.6014ZM31.9013 13.1299H36.5887V15.2208H31.9013V13.1299ZM27.8344 1.50348C30.9363 1.50348 33.1191 3.04294 33.1191 5.29469C33.1191 7.56942 30.9363 9.0859 27.8344 9.0859C24.7095 9.0859 22.5267 7.56942 22.5267 5.29469C22.5267 3.04294 24.7095 1.50348 27.8344 1.50348ZM27.8344 3.73225C26.4098 3.73225 25.4218 4.26072 25.4218 5.29469C25.4218 6.32866 26.4098 6.85713 27.8344 6.85713C29.236 6.85713 30.224 6.32866 30.224 5.29469C30.224 4.26072 29.236 3.73225 27.8344 3.73225ZM55.7957 0.745233H58.8746V22.022H55.7957V0.745233ZM58.0704 8.87911H61.8157V11.3836H58.0704V8.87911ZM50.2122 2.95103H53.1993C53.1993 9.33865 50.7637 14.8072 43.6868 18.3686L41.9865 16.0479C47.5699 13.1528 50.2122 9.24674 50.2122 3.4795V2.95103ZM43.1583 2.95103H51.7747V5.40957H43.1583V2.95103ZM77.9438 0.768211H81.0227V12.2108H77.9438V0.768211ZM66.8688 13.1299H69.8788V15.1059H77.9897V13.1299H81.0227V21.8152H66.8688V13.1299ZM69.8788 17.4495V19.3796H77.9897V17.4495H69.8788ZM69.4422 1.64134C72.7509 1.64134 75.2095 3.73225 75.2095 6.67331C75.2095 9.61437 72.7509 11.7053 69.4422 11.7053C66.1335 11.7053 63.652 9.61437 63.652 6.67331C63.652 3.73225 66.1335 1.64134 69.4422 1.64134ZM69.4422 4.16881C67.8109 4.16881 66.639 5.11087 66.639 6.67331C66.639 8.25873 67.8109 9.17781 69.4422 9.17781C71.0506 9.17781 72.2225 8.25873 72.2225 6.67331C72.2225 5.11087 71.0506 4.16881 69.4422 4.16881Z" fill="#819088"/>
</svg>
