<svg width="62" height="62" viewBox="0 0 62 62" fill="none" xmlns="http://www.w3.org/2000/svg">
<path d="M31 61C47.5685 61 61 47.5685 61 31C61 14.4315 47.5685 1 31 1C14.4315 1 1 14.4315 1 31C1 47.5685 14.4315 61 31 61Z" stroke="#F9FAFB" stroke-width="2" stroke-linecap="round"/>
<path d="M23.207 35.5C23.997 36.8681 25.1331 38.0041 26.5012 38.7939C27.8694 39.5838 29.4213 39.9996 31.001 39.9996C32.5808 39.9996 34.1327 39.5838 35.5008 38.7939C36.869 38.0041 38.0051 36.8681 38.795 35.5" stroke="#F9FAFB" stroke-width="2" stroke-linecap="round"/>
<path d="M22 18.625H19C17.136 18.625 15.625 20.136 15.625 22C15.625 23.864 17.136 25.375 19 25.375H22C23.864 25.375 25.375 23.864 25.375 22C25.375 20.136 23.864 18.625 22 18.625Z" fill="#F9FAFB" stroke="#F9FAFB" stroke-width="0.25" stroke-linecap="round"/>
<path d="M43 18.625H40C38.136 18.625 36.625 20.136 36.625 22C36.625 23.864 38.136 25.375 40 25.375H43C44.864 25.375 46.375 23.864 46.375 22C46.375 20.136 44.864 18.625 43 18.625Z" fill="#F9FAFB" stroke="#F9FAFB" stroke-width="0.25" stroke-linecap="round"/>
</svg>
