<svg width="92" height="92" viewBox="0 0 92 92" fill="none" xmlns="http://www.w3.org/2000/svg">
<g id="fluent:warning-24-filled">
<path id="Vector" d="M38.4484 14.0262C41.7297 8.09218 50.2589 8.09218 53.5402 14.0262L83.2332 67.6967C86.4149 73.4467 82.2557 80.5 75.6854 80.5H16.307C9.73286 80.5 5.57369 73.4467 8.75536 67.6967L38.4484 14.0262ZM49.8219 65.1667C49.8381 64.6538 49.7511 64.143 49.5661 63.6644C49.381 63.1858 49.1017 62.7494 48.7446 62.3808C48.3876 62.0123 47.9602 61.7193 47.4877 61.5192C47.0152 61.3191 46.5074 61.216 45.9943 61.216C45.4812 61.216 44.9733 61.3191 44.5009 61.5192C44.0284 61.7193 43.6009 62.0123 43.2439 62.3808C42.8869 62.7494 42.6076 63.1858 42.4225 63.6644C42.2375 64.143 42.1505 64.6538 42.1667 65.1667C42.1982 66.1609 42.6152 67.1038 43.3296 67.7959C44.044 68.488 44.9996 68.875 45.9943 68.875C46.9889 68.875 47.9446 68.488 48.659 67.7959C49.3733 67.1038 49.7904 66.1609 49.8219 65.1667ZM48.829 35.0635C48.7297 34.3416 48.3599 33.6843 47.7944 33.2246C47.229 32.7649 46.51 32.5371 45.783 32.5872C45.056 32.6374 44.3751 32.9617 43.8781 33.4947C43.3811 34.0277 43.1051 34.7296 43.1059 35.4584L43.1212 52.7122L43.148 53.1032C43.2474 53.8251 43.6172 54.4824 44.1826 54.9421C44.7481 55.4018 45.467 55.6297 46.1941 55.5795C46.9211 55.5293 47.602 55.205 48.0989 54.672C48.5959 54.139 48.8719 53.4371 48.8712 52.7084L48.8559 35.4507L48.829 35.0635Z" fill="#FDD0E6"/>
</g>
</svg>
