<svg width="24" height="24" viewBox="0 0 24 24" fill="none" xmlns="http://www.w3.org/2000/svg">
<rect width="24" height="24" fill="#373737"/>
<g id="&#235;&#170;&#168;&#235;&#139;&#172; &#237;&#149;&#153;&#236;&#131;&#157;&#236;&#176;&#189; v2">
<path id="Rectangle 5731" d="M-398 3C-398 -8.0457 -389.046 -17 -378 -17H42V40H-398V3Z" fill="#302B51"/>
<path id="&#235;&#139;&#171;&#234;&#184;&#176;" d="M15.108 6.96L12 9.9644L8.892 6.96L7.2 8.5956L10.308 11.6L7.2 14.6044L8.892 16.24L12 13.2356L15.108 16.24L16.8 14.6044L13.692 11.6L16.8 8.5956L15.108 6.96ZM12 0C5.364 0 0 5.1852 0 11.6C0 18.0148 5.364 23.2 12 23.2C18.636 23.2 24 18.0148 24 11.6C24 5.1852 18.636 0 12 0ZM12 20.88C6.708 20.88 2.4 16.7156 2.4 11.6C2.4 6.4844 6.708 2.32 12 2.32C17.292 2.32 21.6 6.4844 21.6 11.6C21.6 16.7156 17.292 20.88 12 20.88Z" fill="white"/>
</g>
</svg>
